<mxfile host="app.diagrams.net" modified="2022-09-23T02:09:16.357Z" agent="5.0 (Macintosh; Intel Mac OS X 10_15_7) AppleWebKit/537.36 (KHTML, like Gecko) Chrome/104.0.0.0 Safari/537.36" etag="SUJwn8TZt4yUfR_0y7p8" version="20.3.3" type="github">
  <diagram id="q3GiHXyAybd_ypthJgl-" name="第 1 页">
    <mxGraphModel dx="949" dy="550" grid="0" gridSize="10" guides="1" tooltips="1" connect="1" arrows="1" fold="1" page="0" pageScale="1" pageWidth="1169" pageHeight="827" math="0" shadow="1">
      <root>
        <mxCell id="0" />
        <mxCell id="1" parent="0" />
        <mxCell id="FGYQo33Ou1UiCExDr77f-1" value="混编架构" style="html=1;shadow=0;dashed=0;align=center;verticalAlign=middle;shape=mxgraph.arrows2.arrow;dy=0.6;dx=40;notch=0;sketch=1;rounded=1;" vertex="1" parent="1">
          <mxGeometry x="120" y="200" width="100" height="70" as="geometry" />
        </mxCell>
        <mxCell id="FGYQo33Ou1UiCExDr77f-3" value="工具组件" style="html=1;shadow=0;dashed=0;align=center;verticalAlign=middle;shape=mxgraph.arrows2.arrow;dy=0.6;dx=40;notch=0;sketch=1;rounded=1;" vertex="1" parent="1">
          <mxGeometry x="280" y="200" width="100" height="70" as="geometry" />
        </mxCell>
        <mxCell id="FGYQo33Ou1UiCExDr77f-4" value="监控运维" style="html=1;shadow=0;dashed=0;align=center;verticalAlign=middle;shape=mxgraph.arrows2.arrow;dy=0.6;dx=40;notch=0;sketch=1;rounded=1;" vertex="1" parent="1">
          <mxGeometry x="440" y="200" width="100" height="70" as="geometry" />
        </mxCell>
        <mxCell id="FGYQo33Ou1UiCExDr77f-5" value="构建发布" style="html=1;shadow=0;dashed=0;align=center;verticalAlign=middle;shape=mxgraph.arrows2.arrow;dy=0.6;dx=40;notch=0;sketch=1;rounded=1;" vertex="1" parent="1">
          <mxGeometry x="600" y="200" width="100" height="70" as="geometry" />
        </mxCell>
        <mxCell id="FGYQo33Ou1UiCExDr77f-6" value="推广交流" style="html=1;shadow=0;dashed=0;align=center;verticalAlign=middle;shape=mxgraph.arrows2.arrow;dy=0.6;dx=40;notch=0;sketch=1;rounded=1;" vertex="1" parent="1">
          <mxGeometry x="760" y="200" width="100" height="70" as="geometry" />
        </mxCell>
        <mxCell id="FGYQo33Ou1UiCExDr77f-7" value="Flutter Boost" style="rounded=1;whiteSpace=wrap;html=1;sketch=1;" vertex="1" parent="1">
          <mxGeometry x="110" y="300" width="120" height="30" as="geometry" />
        </mxCell>
        <mxCell id="FGYQo33Ou1UiCExDr77f-13" value="MVVM" style="rounded=1;whiteSpace=wrap;html=1;sketch=1;" vertex="1" parent="1">
          <mxGeometry x="110" y="400" width="120" height="30" as="geometry" />
        </mxCell>
        <mxCell id="FGYQo33Ou1UiCExDr77f-14" value="&amp;nbsp;Pigeon Plugin" style="rounded=1;whiteSpace=wrap;html=1;sketch=1;" vertex="1" parent="1">
          <mxGeometry x="110" y="350" width="120" height="30" as="geometry" />
        </mxCell>
        <mxCell id="FGYQo33Ou1UiCExDr77f-15" value="Abstract Template" style="rounded=1;whiteSpace=wrap;html=1;sketch=1;" vertex="1" parent="1">
          <mxGeometry x="270" y="299" width="120" height="30" as="geometry" />
        </mxCell>
        <mxCell id="FGYQo33Ou1UiCExDr77f-16" value="Json Serializable" style="rounded=1;whiteSpace=wrap;html=1;sketch=1;" vertex="1" parent="1">
          <mxGeometry x="270" y="349" width="120" height="30" as="geometry" />
        </mxCell>
        <mxCell id="FGYQo33Ou1UiCExDr77f-18" value="lizhi_flutter_lints" style="rounded=1;whiteSpace=wrap;html=1;sketch=1;" vertex="1" parent="1">
          <mxGeometry x="270" y="399" width="120" height="30" as="geometry" />
        </mxCell>
        <mxCell id="FGYQo33Ou1UiCExDr77f-19" value="lizhi_flutter_exposure" style="rounded=1;whiteSpace=wrap;html=1;sketch=1;" vertex="1" parent="1">
          <mxGeometry x="270" y="449" width="120" height="30" as="geometry" />
        </mxCell>
        <mxCell id="FGYQo33Ou1UiCExDr77f-20" value="lizhi_flutter_toast" style="rounded=1;whiteSpace=wrap;html=1;sketch=1;" vertex="1" parent="1">
          <mxGeometry x="270" y="499" width="120" height="30" as="geometry" />
        </mxCell>
        <mxCell id="FGYQo33Ou1UiCExDr77f-23" value="FPM" style="rounded=1;whiteSpace=wrap;html=1;sketch=1;" vertex="1" parent="1">
          <mxGeometry x="430" y="299" width="120" height="30" as="geometry" />
        </mxCell>
        <mxCell id="FGYQo33Ou1UiCExDr77f-24" value="log_lzflutter" style="rounded=1;whiteSpace=wrap;html=1;sketch=1;" vertex="1" parent="1">
          <mxGeometry x="430" y="349" width="120" height="30" as="geometry" />
        </mxCell>
        <mxCell id="FGYQo33Ou1UiCExDr77f-25" value="bugly_lzflutter" style="rounded=1;whiteSpace=wrap;html=1;sketch=1;" vertex="1" parent="1">
          <mxGeometry x="430" y="400" width="120" height="30" as="geometry" />
        </mxCell>
        <mxCell id="FGYQo33Ou1UiCExDr77f-26" value="tracking_lzflutter" style="rounded=1;whiteSpace=wrap;html=1;sketch=1;" vertex="1" parent="1">
          <mxGeometry x="430" y="449" width="120" height="30" as="geometry" />
        </mxCell>
        <mxCell id="FGYQo33Ou1UiCExDr77f-27" value="源码集成" style="rounded=1;whiteSpace=wrap;html=1;sketch=1;" vertex="1" parent="1">
          <mxGeometry x="590" y="300" width="120" height="30" as="geometry" />
        </mxCell>
        <mxCell id="FGYQo33Ou1UiCExDr77f-28" value="产物集成" style="rounded=1;whiteSpace=wrap;html=1;sketch=1;" vertex="1" parent="1">
          <mxGeometry x="590" y="349" width="120" height="30" as="geometry" />
        </mxCell>
        <mxCell id="FGYQo33Ou1UiCExDr77f-29" value="Jenkins" style="rounded=1;whiteSpace=wrap;html=1;sketch=1;" vertex="1" parent="1">
          <mxGeometry x="590" y="400" width="120" height="30" as="geometry" />
        </mxCell>
        <mxCell id="FGYQo33Ou1UiCExDr77f-30" value="Null Safety" style="rounded=1;whiteSpace=wrap;html=1;sketch=1;" vertex="1" parent="1">
          <mxGeometry x="110" y="449" width="120" height="30" as="geometry" />
        </mxCell>
        <mxCell id="FGYQo33Ou1UiCExDr77f-31" value="Document" style="rounded=1;whiteSpace=wrap;html=1;sketch=1;" vertex="1" parent="1">
          <mxGeometry x="750" y="299" width="120" height="30" as="geometry" />
        </mxCell>
        <mxCell id="FGYQo33Ou1UiCExDr77f-32" value="交流群" style="rounded=1;whiteSpace=wrap;html=1;sketch=1;" vertex="1" parent="1">
          <mxGeometry x="750" y="350" width="120" height="30" as="geometry" />
        </mxCell>
        <mxCell id="FGYQo33Ou1UiCExDr77f-33" value="跨部门分享" style="rounded=1;whiteSpace=wrap;html=1;sketch=1;" vertex="1" parent="1">
          <mxGeometry x="750" y="449" width="120" height="30" as="geometry" />
        </mxCell>
        <mxCell id="FGYQo33Ou1UiCExDr77f-34" value="跨公司分享" style="rounded=1;whiteSpace=wrap;html=1;sketch=1;" vertex="1" parent="1">
          <mxGeometry x="750" y="498" width="120" height="30" as="geometry" />
        </mxCell>
        <mxCell id="FGYQo33Ou1UiCExDr77f-35" value="部门内学习" style="rounded=1;whiteSpace=wrap;html=1;sketch=1;" vertex="1" parent="1">
          <mxGeometry x="750" y="400" width="120" height="30" as="geometry" />
        </mxCell>
        <mxCell id="FGYQo33Ou1UiCExDr77f-36" value="" style="endArrow=none;dashed=1;html=1;dashPattern=1 3;strokeWidth=2;rounded=1;sketch=1;curved=1;" edge="1" parent="1">
          <mxGeometry width="50" height="50" relative="1" as="geometry">
            <mxPoint x="250" y="555" as="sourcePoint" />
            <mxPoint x="250" y="275" as="targetPoint" />
          </mxGeometry>
        </mxCell>
        <mxCell id="FGYQo33Ou1UiCExDr77f-37" value="" style="endArrow=none;dashed=1;html=1;dashPattern=1 3;strokeWidth=2;rounded=1;sketch=1;curved=1;" edge="1" parent="1">
          <mxGeometry width="50" height="50" relative="1" as="geometry">
            <mxPoint x="410" y="554" as="sourcePoint" />
            <mxPoint x="410" y="274" as="targetPoint" />
          </mxGeometry>
        </mxCell>
        <mxCell id="FGYQo33Ou1UiCExDr77f-38" value="" style="endArrow=none;dashed=1;html=1;dashPattern=1 3;strokeWidth=2;rounded=1;sketch=1;curved=1;" edge="1" parent="1">
          <mxGeometry width="50" height="50" relative="1" as="geometry">
            <mxPoint x="570" y="554" as="sourcePoint" />
            <mxPoint x="570" y="274" as="targetPoint" />
          </mxGeometry>
        </mxCell>
        <mxCell id="FGYQo33Ou1UiCExDr77f-39" value="" style="endArrow=none;dashed=1;html=1;dashPattern=1 3;strokeWidth=2;rounded=1;sketch=1;curved=1;" edge="1" parent="1">
          <mxGeometry width="50" height="50" relative="1" as="geometry">
            <mxPoint x="730" y="554" as="sourcePoint" />
            <mxPoint x="730" y="274" as="targetPoint" />
          </mxGeometry>
        </mxCell>
      </root>
    </mxGraphModel>
  </diagram>
</mxfile>
